<?xml version="1.0" encoding="UTF-8" standalone="no"?>
<svg xmlns:inkscape="http://www.inkscape.org/namespaces/inkscape" xmlns:rdf="http://www.w3.org/1999/02/22-rdf-syntax-ns#" xmlns="http://www.w3.org/2000/svg" xmlns:cc="http://creativecommons.org/ns#" xmlns:dc="http://purl.org/dc/elements/1.1/" xmlns:sodipodi="http://sodipodi.sourceforge.net/DTD/sodipodi-0.dtd" id="svg2" sodipodi:docname="_svgclean2.svg" viewBox="0 0 1053.3 651.36" version="1.1" inkscape:version="0.48.3.1 r9886">
  <sodipodi:namedview id="namedview31" bordercolor="#666666" inkscape:pageshadow="2" guidetolerance="10" pagecolor="#ffffff" gridtolerance="10" inkscape:window-maximized="0" inkscape:zoom="0.22425739" objecttolerance="10" borderopacity="1" inkscape:current-layer="svg2" inkscape:cx="372.54724" inkscape:cy="124.67891" inkscape:window-y="0" inkscape:window-x="0" inkscape:window-width="743" showgrid="false" inkscape:pageopacity="0" inkscape:window-height="484"/>
  <desc id="desc4">Golden Spiral</desc>
  <g id="golden_spiral" style="fill:none" transform="translate(.5 .5)">
    <g id="spiral" style="stroke:#ff0000">
      <path id="path8" inkscape:connector-curvature="0" d="m0 650.36a650.36 650.36 0 0 1 650.36 -650.36 401.92 401.92 0 0 1 401.92 401.92 248.39 248.39 0 0 1 -248.39 248.39 153.5 153.5 0 0 1 -153.5 -153.5 94.865 94.865 0 0 1 94.865 -94.865 58.627 58.627 0 0 1 58.627 58.627 36.231 36.231 0 0 1 -36.231 36.231 22.39 22.39 0 0 1 -22.39 -22.39 13.838 13.838 0 0 1 13.838 -13.838 8.5516 8.5516 0 0 1 8.5516 8.5516"/>
    </g>
    <g id="boxes" style="stroke:#008000">
      <line id="line11" x2="650.36" x1="650.36" y2="650.36"/>
      <line id="line13" y1="401.92" x2="1052.3" x1="650.36" y2="401.92"/>
      <line id="line15" y1="401.92" x2="803.89" x1="803.89" y2="650.36"/>
      <line id="line17" y1="496.79" x2="803.89" x1="650.36" y2="496.79"/>
      <line id="line19" y1="401.92" x2="745.22" x1="745.22" y2="496.79"/>
      <line id="line21" y1="460.55" x2="803.89" x1="745.22" y2="460.55"/>
      <line id="line23" y1="460.55" x2="767.61" x1="767.61" y2="496.79"/>
      <line id="line25" y1="469.1" x2="767.61" x1="745.22" y2="469.1"/>
      <line id="line27" y1="460.55" x2="759.06" x1="759.06" y2="469.1"/>
    </g>
  </g>
  <metadata id="metadata29">
    <rdf:RDF>
      <cc:Work>
        <dc:format>image/svg+xml</dc:format>
        <dc:type rdf:resource="http://purl.org/dc/dcmitype/StillImage"/>
        <cc:license rdf:resource="http://creativecommons.org/licenses/publicdomain/"/>
        <dc:publisher>
          <cc:Agent rdf:about="http://openclipart.org/">
            <dc:title>Openclipart</dc:title>
          </cc:Agent>
        </dc:publisher>
      </cc:Work>
      <cc:License rdf:about="http://creativecommons.org/licenses/publicdomain/">
        <cc:permits rdf:resource="http://creativecommons.org/ns#Reproduction"/>
        <cc:permits rdf:resource="http://creativecommons.org/ns#Distribution"/>
        <cc:permits rdf:resource="http://creativecommons.org/ns#DerivativeWorks"/>
      </cc:License>
    </rdf:RDF>
  </metadata>
</svg>
